<svg xmlns="http://www.w3.org/2000/svg" version="1.1" xmlns:xlink="http://www.w3.org/1999/xlink" xmlns:svgjs="http://svgjs.com/svgjs" width="1440" height="760" preserveAspectRatio="none" viewBox="0 0 1440 760"><g mask="url(&quot;#SvgjsMask1085&quot;)" fill="none"><rect width="1440" height="760" x="0" y="0" fill="url(#SvgjsLinearGradient1086)"></rect><path d="M 0,731 C 20.6,586 61.8,34 103,6 C 144.2,-22 164.8,552.2 206,591 C 247.2,629.8 267.8,213.2 309,200 C 350.2,186.8 370.8,552.4 412,525 C 453.2,497.6 473.8,75.2 515,63 C 556.2,50.8 576.8,449.6 618,464 C 659.2,478.4 679.8,138.6 721,135 C 762.2,131.4 782.8,433.4 824,446 C 865.2,458.6 885.8,161.4 927,198 C 968.2,234.6 988.8,606.8 1030,629 C 1071.2,651.2 1091.8,345 1133,309 C 1174.2,273 1194.8,448.2 1236,449 C 1277.2,449.8 1298.2,259.2 1339,313 C 1379.8,366.8 1419.8,637 1440,718L1440 760L0 760z" fill="#184a7e"></path><path d="M 0,532 C 96,478.2 288,230.6 480,263 C 672,295.4 768,721 960,694 C 1152,667 1344,241.2 1440,128L1440 760L0 760z" fill="#2264ab"></path></g><defs><mask id="SvgjsMask1085"><rect width="1440" height="760" fill="#ffffff"></rect></mask><linearGradient x1="11.81%" y1="-22.37%" x2="88.19%" y2="122.37%" gradientUnits="userSpaceOnUse" id="SvgjsLinearGradient1086"><stop stop-color="#0e2a47" offset="0"></stop><stop stop-color="rgba(0, 69, 158, 0.24)" offset="1"></stop></linearGradient></defs></svg>